<?xml version="1.0" encoding="UTF-8" ?>
<svg version="1.1" width="75" height="75" xmlns="http://www.w3.org/2000/svg" shape-rendering="crispEdges">
<rect x="20" y="0" width="35" height="5" fill="#282828" />
<rect x="15" y="5" width="5" height="5" fill="#282828" />
<rect x="20" y="5" width="35" height="5" fill="#393939" />
<rect x="55" y="5" width="5" height="5" fill="#282828" />
<rect x="10" y="10" width="5" height="5" fill="#282828" />
<rect x="15" y="10" width="10" height="5" fill="#393939" />
<rect x="25" y="10" width="25" height="5" fill="#545454" />
<rect x="50" y="10" width="10" height="5" fill="#393939" />
<rect x="60" y="10" width="5" height="5" fill="#282828" />
<rect x="5" y="15" width="5" height="5" fill="#282828" />
<rect x="10" y="15" width="10" height="5" fill="#393939" />
<rect x="20" y="15" width="5" height="5" fill="#545454" />
<rect x="25" y="15" width="10" height="5" fill="#CACACA" />
<rect x="35" y="15" width="5" height="5" fill="#282828" />
<rect x="40" y="15" width="10" height="5" fill="#CACACA" />
<rect x="50" y="15" width="5" height="5" fill="#545454" />
<rect x="55" y="15" width="10" height="5" fill="#393939" />
<rect x="65" y="15" width="5" height="5" fill="#282828" />
<rect x="0" y="20" width="5" height="35" fill="#282828" />
<rect x="5" y="20" width="10" height="5" fill="#393939" />
<rect x="15" y="20" width="5" height="5" fill="#545454" />
<rect x="20" y="20" width="5" height="5" fill="#282828" />
<rect x="25" y="20" width="5" height="5" fill="#CACACA" />
<rect x="30" y="20" width="15" height="5" fill="#E9E9E9" />
<rect x="45" y="20" width="5" height="5" fill="#CACACA" />
<rect x="50" y="20" width="5" height="5" fill="#282828" />
<rect x="55" y="20" width="5" height="5" fill="#545454" />
<rect x="60" y="20" width="10" height="5" fill="#393939" />
<rect x="70" y="20" width="5" height="35" fill="#282828" />
<rect x="5" y="25" width="5" height="30" fill="#393939" />
<rect x="10" y="25" width="5" height="25" fill="#545454" />
<rect x="15" y="25" width="10" height="5" fill="#CACACA" />
<rect x="25" y="25" width="10" height="25" fill="#E9E9E9" />
<rect x="35" y="25" width="5" height="15" fill="#282828" />
<rect x="40" y="25" width="10" height="10" fill="#E9E9E9" />
<rect x="50" y="25" width="10" height="5" fill="#CACACA" />
<rect x="60" y="25" width="5" height="25" fill="#545454" />
<rect x="65" y="25" width="5" height="30" fill="#393939" />
<rect x="15" y="30" width="5" height="5" fill="#CACACA" />
<rect x="20" y="30" width="5" height="15" fill="#E9E9E9" />
<rect x="50" y="30" width="5" height="15" fill="#E9E9E9" />
<rect x="55" y="30" width="5" height="5" fill="#CACACA" />
<rect x="15" y="35" width="5" height="5" fill="#282828" />
<rect x="40" y="35" width="10" height="5" fill="#282828" />
<rect x="55" y="35" width="5" height="5" fill="#282828" />
<rect x="15" y="40" width="5" height="10" fill="#CACACA" />
<rect x="35" y="40" width="15" height="10" fill="#E9E9E9" />
<rect x="55" y="40" width="5" height="10" fill="#CACACA" />
<rect x="20" y="45" width="5" height="5" fill="#CACACA" />
<rect x="50" y="45" width="5" height="5" fill="#CACACA" />
<rect x="10" y="50" width="5" height="10" fill="#393939" />
<rect x="15" y="50" width="5" height="5" fill="#545454" />
<rect x="20" y="50" width="5" height="5" fill="#282828" />
<rect x="25" y="50" width="5" height="10" fill="#CACACA" />
<rect x="30" y="50" width="15" height="5" fill="#E9E9E9" />
<rect x="45" y="50" width="5" height="10" fill="#CACACA" />
<rect x="50" y="50" width="5" height="5" fill="#282828" />
<rect x="55" y="50" width="5" height="5" fill="#545454" />
<rect x="60" y="50" width="5" height="10" fill="#393939" />
<rect x="5" y="55" width="5" height="5" fill="#282828" />
<rect x="15" y="55" width="5" height="10" fill="#393939" />
<rect x="20" y="55" width="5" height="5" fill="#545454" />
<rect x="30" y="55" width="5" height="5" fill="#CACACA" />
<rect x="35" y="55" width="5" height="5" fill="#282828" />
<rect x="40" y="55" width="5" height="5" fill="#CACACA" />
<rect x="50" y="55" width="5" height="5" fill="#545454" />
<rect x="55" y="55" width="5" height="10" fill="#393939" />
<rect x="65" y="55" width="5" height="5" fill="#282828" />
<rect x="10" y="60" width="5" height="5" fill="#282828" />
<rect x="20" y="60" width="5" height="10" fill="#393939" />
<rect x="25" y="60" width="25" height="5" fill="#545454" />
<rect x="50" y="60" width="5" height="10" fill="#393939" />
<rect x="60" y="60" width="5" height="5" fill="#282828" />
<rect x="15" y="65" width="5" height="5" fill="#282828" />
<rect x="25" y="65" width="25" height="5" fill="#393939" />
<rect x="55" y="65" width="5" height="5" fill="#282828" />
<rect x="20" y="70" width="35" height="5" fill="#282828" />
</svg>